<svg width="1819.5983" height="1881.0601" xmlns="http://www.w3.org/2000/svg" version="1.1" enable-background="new 12.4018 -4 1819.5983 1881.0601" xml:space="preserve">
 <g>
  <title>Layer 1</title>
  <path fill="#1F1A17" stroke="#1F1A17" stroke-width="0.0938" d="m860.37,16.39c5.93,-1.56 11.8,5.42 8.99,10.95c-2.02,5.51 -10.31,6.66 -13.68,1.83c-3.78,-4.34 -0.95,-11.86 4.69,-12.78z" id="svg_1"/>
  <path fill="#1F1A17" d="m854.72,264.97c2.3101,-76.69 4.51,-153.38 6.91,-230.07c0.15,1.12 0.46,3.36 0.62,4.48c36.59,-0.85 73.25,-2.28 109.84,-0.17c8.99,0.81 18.18,1.25 26.8199,4.13c2.54,0.94 6.01,2.49 5.95,5.68c-1.29,6.07 -8.23,9.04 -9.52,15.08c-0.15,14.26 -0.02,28.53 -0.05,42.8c-43.69,5.63 -86.93,14.4 -129.75,24.7c-0.19,-3.35 -0.57,-10.05 -0.7599,-13.4c-0.08,17.26 0.9399,34.53 1.25,51.8c1,30.68 1.83,61.36 2.79,92.04c0.31,3.75 -0.36,7.69 0.84,11.31c45.88,104.08 91.59,208.24 137.53,312.29c-8.06,-0.06 -16.12,-0.04 -24.17,-0.01c0.05,131.33 0.03,262.67 0.02,394c6.73,0.03 13.46,0.04 20.2,-0.02c-0.09,15.79 0,31.58 -0.04,47.37c31.39,0.05 62.78,-0.08 94.17,0.0601c-0.05,-15.8101 0.03,-31.6201 -0.04,-47.4301c30.02,0.06 60.04,0.1 90.0701,-0.02c-0.05,100.4999 -0.03,201.0099 -0.01,301.52c13.78,-0.11 27.58,-0.0499 41.37,-0.03c-0.0601,15.8 -0.03,31.5901 -0.02,47.39c34.85,-0.03 69.7,-0.1 104.55,0.04c0.0399,-15.84 -0.04,-31.67 0.0399,-47.5c32.4501,0.14 64.89,-0.03 97.3401,0.09c0.01,-33.72 -0.01,-67.4299 0,-101.15c-13.8401,0 -27.6801,0.01 -41.52,0.01c0.01,-39.64 -0.03,-79.2799 0.01,-118.9299c12.6,0.01 25.1899,-0.02 37.7899,0.02c0.02,12.0199 0.02,24.0499 0,36.08c5.9701,-0.05 11.9601,-0.0601 17.9401,0c-0.02,-106.24 -0.05,-212.47 0.02,-318.71c-3.36,-0.04 -6.7001,-0.03 -10.04,0.05c17.09,-40.18 34.01,-80.42 51.04,-120.61c11.21,-26.72 22.75,-53.32 33.73,-80.12c1.67,-50.94 3.1,-101.91 4.62,-152.86c0.1,0.79 0.3199,2.38 0.42,3.18c25.45,-0.55 50.99,-1.78 76.3899,0.44c5.0601,0.99 11.64,0.55 14.8201,5.43c-1.38,3.9 -5.73,6.07 -6.4501,10.18c-0.11,8.98 -0.0499,17.97 -0.0099,26.95c-27.9501,3.81 -55.62,9.37 -83.0601,15.87c0.97,30.67 1.84,61.34 2.8,92c16.22,37.34 32.7799,74.56 49.14,111.85c12.9299,29.1899 25.58,58.5 38.6899,87.62c-5.1801,0.03 -10.34,0 -15.5,-0.02c0.05,106.24 0.04,212.48 0,318.72c5.8199,-0.01 11.64,-0.01 17.47,0.01c-0.0499,-12.02 0.03,-24.0499 -0.0399,-36.0699c11.8099,-0.05 23.62,0.0599 35.4299,-0.0601c-0.01,39.6801 -0.02,79.36 0,119.04c-13.8099,-0.16 -27.62,-0.02 -41.4299,-0.0701c0.09,232.25 -0.02,464.49 0.0599,696.7301c-383.33,0.0299 -764.14999,0.0099 -1147.47999,0.0099c-127.6,-0.0699 -257.70001,0.04 -385.30001,0.3701c0.08,-232.3701 0.02,-464.7401 0.03,-697.1101c-13.79,0.04 -27.58,-0.0599 -41.38,0.0601c0,-39.67 0.07,-79.34 -0.03,-119.01c12.6,0.05 25.2,0.05 37.8,0c0,12.04 0,24.08 0,36.12c5.88,-0.04 11.77,-0.03 17.65,-0.01c-0.06,-106.24 -0.05,-212.49 0,-318.73c-3.32,0.02 -6.64,0.02 -9.96,0.06c28.05,-66.08 55.9,-132.25 83.94,-198.33c0.91,-1.88 0.98,-4 1.02,-6.04c0.9,-30.35 1.83,-60.69 2.71,-91.04c0.35,-19.17 1.64,-38.34 1.34,-57.51c0.16,0.77 0.48,2.3 0.64,3.07c15.68,-0.4 31.36,-0.87 47.05,-0.72c12.3,0.11 24.71,0.11 36.83,2.42c2.55,0.77 6.52,1.34 6.82,4.63c-1.2,4.19 -6.64,6.34 -6.1,11.14c0.01,8.57 0.02,17.13 0.01,25.7c-27.86,3.53 -55.37,9.27 -82.69,15.68c0.83,30.51 1.66,61.04 2.79,91.54c28.98,66.59 58.46,132.99 87.68,199.49c-5.12,-0.11 -10.24,-0.0699 -15.37,-0.06c0.03,106.2401 0.01,212.48 0.02,318.72c5.88,-0.0699 11.76,-0.02 17.64,-0.03c-0.03,-12.0399 -0.01,-24.08 -0.02,-36.11c11.79,0.08 23.58,0.03 35.37,0.02c0,39.66 0,79.3199 0,118.98c-13.82,-0.0699 -27.64,-0.02 -41.46,-0.03c0.05,33.7101 0.02,67.42 0.01,101.13c33.39,-0.1 66.77,0.04 100.15,-0.0699c0.05,15.8199 0.02,31.64 0.02,47.47c34.85,-0.09 69.71,-0.08 104.56,-0.01c0.01,-15.8099 0.02,-31.62 -0.01,-47.4299c13.89,0.0399 27.78,-0.05 41.67,0.0499c0.05,-100.5 0.06,-201 -0.01,-301.5c35.28,0.1 70.57,0.07 105.85,0.01c-0.11,15.81 0.0099,31.62 -0.07,47.4301c31.38,-0.14 62.7599,0 94.14,-0.0701c-0.03,-15.79 0.04,-31.5699 -0.03,-47.35c9.7,0.07 19.41,0.01 29.12,0.04c0.01,-131.35 -0.05,-262.7 0.03,-394.05c-5.23,-0.03 -10.45,0.04 -15.66,-0.03c43.84,-103.35 87.43,-206.8 131.24,-310.16c1.5601,-3.2602 0.9001,-6.9702 1.1701,-10.4502z" id="svg_2" stroke="null"/>
  <path fill="#1F1A17" stroke="#1F1A17" stroke-width="0.0938" d="m998.07,62.83c1.56,-3.64 4.82,-6.13 6.78,-9.53c-0.23,4.29 -0.14,8.59 -0.13,12.89c-1.9,-0.22 -3.73,-0.74 -5.48,-1.46c-0.29,-0.47 -0.87,-1.43 -1.17,-1.9z" id="svg_3"/>
  <path fill="#1F1A17" stroke="#1F1A17" stroke-width="0.0938" d="m1130.87,61.5c14.02,-1.12 28.04,-2.72 42.13,-2.54c26.1,-0.37 52.13,2.03 78.1,4.41c17.54,1.76 35.0701,3.59 52.5801,5.49c-10.4,1.94 -21.0601,1.97 -31.6001,2.59c-24.09,1.29 -48.48,0.37 -72.25,5.08c22.77,3.93 45.6001,7.52 68.3401,11.6c9.72,1.88 19.5299,3.51 29.0599,6.27c-27.0699,0.59 -54.1,-1.82 -81.1699,-1.54c-23.2201,-0.09 -46.5901,2.02 -69.01,8.29c-31.9601,8.67 -64.3301,15.9 -97.0601,20.97c-16.9399,2.41 -34.07,5.15 -51.22,3.8c-0.05,-19.78 0.08,-39.56 -0.07,-59.34c11.95,2.44 24.23,1.4 36.34,1.37c31.99,-1.3 63.93,-3.79 95.83,-6.45z" id="svg_4"/>
  <path fill="#1F1A17" stroke="#1F1A17" stroke-width="0.0938" d="m1522.47,413.64c3.65,-1.82 8.1901,2.04 7.02,5.92c-0.72,3.72 -5.9399,5.32 -8.52,2.48c-2.68,-2.32 -1.73,-7.1 1.5,-8.4z" id="svg_5"/>
  <path fill="#1F1A17" stroke="#1F1A17" stroke-width="0.0938" d="m172.2,414.08c3.24,-1.26 7.08,1.5 6.91,4.96c0.07,3.93 -5.1,6.68 -8.2,4.05c-3.3,-2.23 -2.42,-7.73 1.29,-9.01z" id="svg_6"/>
  <path fill="#1F1A17" stroke="#1F1A17" stroke-width="0.0938" d="m1610.86,443.23c1.48,-2.1 3.09,-4.11 4.72,-6.1c-0.1499,2.78 -0.1799,5.57 -0.37,8.36c-1.5201,-0.67 -2.97,-1.4 -4.35,-2.26z" id="svg_7"/>
  <path fill="#1F1A17" stroke="#1F1A17" stroke-width="0.0938" d="m260.06,444.11c1.2,-2.28 2.84,-4.27 4.57,-6.17c-0.06,2.56 -0.1,5.15 -0.13,7.72c-1.56,-0.3 -3.04,-0.82 -4.44,-1.55z" id="svg_8"/>
  <path fill="#1F1A17" stroke="#1F1A17" stroke-width="0.0938" d="m277.02,447.02c29.73,-0.54 59.31,-3.88 88.96,-5.82c30.15,-0.78 60.14,3.31 90.07,6.32c-22.16,2.88 -44.71,0.98 -66.78,4.69c20.73,4.05 41.78,6.53 62.35,11.48c-30.81,0.78 -62.24,-4.27 -92.55,3.49c-22.72,6.19 -45.74,11.37 -69.04,14.86c-9.7,1.25 -19.47,2.71 -29.27,1.96c-0.06,-12.68 0.03,-25.37 -0.07,-38.05c5.32,1.38 10.88,0.98 16.33,1.07z" id="svg_9"/>
  <path fill="#1F1A17" stroke="#1F1A17" stroke-width="0.0938" d="m1689.97,442.67c13.3,-1.13 26.63,-2.53 40.01,-2.13c24.48,0.46 48.79,3.61 73.14,5.85c0.75,0.19 1.51,0.43 2.27,0.74c-21.65,2.83 -43.8,0.47 -65.27,4.75c20.74,3.52 41.65,6.33 62.13,11.22c-22.4,0.76 -44.84,-2.23 -67.23,-0.35c-10.46,0.61 -20.8101,2.53 -30.89,5.37c-22.42,5.98 -45.15,10.85 -68.14,13.99c-8.09,0.88 -16.24,2.04 -24.37,1.23c-0.02,-12.6 0.0699,-25.2 -0.0699,-37.79c10.4299,1.56 20.99,0.66 31.47,0.38c15.6698,-0.76 31.3099,-2 46.9499,-3.26z" id="svg_10"/>
  <rect id="svg_11" height="402.50001" width="790.00001" y="1466.97001" x="465.20089" stroke="#000" fill="#30475e"/>
 </g>

</svg>